<svg xmlns="http://www.w3.org/2000/svg" viewBox="0 5.440000057220459 69.23999786376953 32.52000045776367" data-asc="0.75" width="69.23999786376953" height="32.52000045776367"><defs/><g fill="#000000"><g transform="translate(0, 0)"><path d="M28.25 21.34Q28.25 25.17 27.34 28.25Q26.44 31.32 24.65 33.48Q22.85 35.64 20.14 36.80Q17.43 37.96 13.82 37.96Q10.25 37.96 7.65 36.90Q5.05 35.84 3.36 33.81Q1.66 31.79 0.83 28.78Q0 25.78 0 21.88Q0 18.14 0.90 15.09Q1.81 12.04 3.61 9.90Q5.42 7.76 8.13 6.60Q10.84 5.44 14.45 5.44Q17.94 5.44 20.53 6.49Q23.12 7.54 24.84 9.56Q26.56 11.57 27.40 14.54Q28.25 17.50 28.25 21.34M23.83 21.63Q23.83 18.95 23.35 16.64Q22.88 14.33 21.77 12.63Q20.65 10.94 18.80 9.99Q16.94 9.03 14.21 9.03Q11.47 9.03 9.62 10.06Q7.76 11.08 6.60 12.79Q5.44 14.50 4.94 16.78Q4.44 19.07 4.44 21.58Q4.44 24.37 4.91 26.71Q5.37 29.05 6.47 30.75Q7.57 32.45 9.41 33.39Q11.25 34.33 14.04 34.33Q16.80 34.33 18.68 33.30Q20.56 32.28 21.70 30.53Q22.85 28.78 23.34 26.49Q23.83 24.19 23.83 21.63ZM69.24 36.87Q69.24 37.06 69.14 37.21Q69.04 37.35 68.80 37.44Q68.55 37.52 68.18 37.59Q67.80 37.65 67.19 37.65Q66.63 37.65 66.22 37.59Q65.82 37.52 65.59 37.44Q65.36 37.35 65.26 37.21Q65.16 37.06 65.16 36.87L65.16 9.35L65.11 9.35L53.86 36.99Q53.78 37.16 53.65 37.28Q53.52 37.40 53.26 37.49Q53.00 37.57 52.65 37.61Q52.29 37.65 51.81 37.65Q51.29 37.65 50.93 37.60Q50.56 37.55 50.32 37.46Q50.07 37.38 49.94 37.26Q49.80 37.13 49.76 36.99L38.99 9.35L38.96 9.35L38.96 36.87Q38.96 37.06 38.87 37.21Q38.77 37.35 38.53 37.44Q38.28 37.52 37.89 37.59Q37.50 37.65 36.89 37.65Q36.30 37.65 35.91 37.59Q35.52 37.52 35.29 37.44Q35.06 37.35 34.97 37.21Q34.89 37.06 34.89 36.87L34.89 7.81Q34.89 6.79 35.42 6.35Q35.96 5.91 36.62 5.91L39.16 5.91Q39.94 5.91 40.53 6.05Q41.11 6.20 41.55 6.52Q41.99 6.84 42.29 7.32Q42.58 7.81 42.80 8.47L51.95 31.35L52.08 31.35L61.60 8.54Q61.87 7.81 62.18 7.30Q62.50 6.79 62.88 6.48Q63.26 6.18 63.72 6.04Q64.18 5.91 64.79 5.91L67.46 5.91Q67.82 5.91 68.15 6.02Q68.48 6.13 68.71 6.36Q68.95 6.59 69.09 6.95Q69.24 7.30 69.24 7.81L69.24 36.87Z"/></g></g></svg>